<svg xmlns="http://www.w3.org/2000/svg" fill="none" viewBox="0 0 240 240"><g clip-path="url(#a)"><path fill="#fff" fill-rule="evenodd" d="M60 150H30v30h30v30h30v-30H60v-30Zm90 30h30v30h-30v-30Zm30 0v-30h30v30h-30Z" clip-rule="evenodd"/><path fill="url(#b)" fill-rule="evenodd" d="M210 60h-30v60h-30V90H30v30H0v30h60v30h120v-30h30v-30h30V90h-30V60Z" clip-rule="evenodd"/><path fill="#000" d="M60 120h30v30H60z"/><path fill="#0094FF" fill-rule="evenodd" d="M60 0H30v30h30v30h30V30h30V0H90v30H60V0Z" clip-rule="evenodd"/><path fill="#6B96B0" fill-rule="evenodd" d="M150 60h-30v30H90v30h60V60ZM120 180H90v30h30v30h30v-60h-30Z" clip-rule="evenodd"/></g><defs><linearGradient id="b" x1="0" x2="240" y1="207.75" y2="60" gradientUnits="userSpaceOnUse"><stop stop-color="#73A4C2"/><stop offset="1" stop-color="#67C1F8"/></linearGradient><clipPath id="a"><path fill="#fff" d="M0 0h240v240H0z"/></clipPath></defs></svg>
