<svg xmlns="http://www.w3.org/2000/svg" width="256" height="256" fill="none"><g fill="#C39D63" clip-path="url(#a)" filter="url(#b)"><path d="M68 205.576v-46.564a24.089 24.089 0 0 1 7.794-15.531c5.195-5.168 17.253-10.335 27.023-15.502-9.77-5.168-21.828-10.363-27.023-15.531a24.057 24.057 0 0 1-7.737-15.502V65.884s0-7.736 7.737 0c7.737 7.737 31.061 15.531 38.798 23.296a23.997 23.997 0 0 1 7.766 15.503v46.564a24.052 24.052 0 0 1-7.766 15.53c-5.167 5.168-17.224 10.336-26.995 15.503 9.77 5.195 21.828 10.363 26.995 15.53v.001a24.052 24.052 0 0 1 7.766 15.531v31.062s0 7.765-7.766 0c-7.765-7.766-31.061-15.531-38.798-23.297A24.003 24.003 0 0 1 68 205.577v-.001ZM133.671 42.658V11.596s0-7.765 7.765 0c7.765 7.766 31.062 15.531 38.799 23.268v.001A24.055 24.055 0 0 1 188 50.395v46.593a23.944 23.944 0 0 1-7.765 15.502c-5.168 5.196-17.225 10.363-26.996 15.531 9.771 5.168 21.829 10.335 26.996 15.531A23.942 23.942 0 0 1 188 159.054v31.061s0 7.766-7.765 0c-7.766-7.765-31.062-15.502-38.799-23.267a24.062 24.062 0 0 1-7.765-15.531v-46.564a24.06 24.06 0 0 1 7.765-15.53c5.168-5.168 17.225-10.336 26.995-15.531-9.77-5.168-21.828-10.336-26.995-15.503a24.06 24.06 0 0 1-7.765-15.531Z"/></g><defs><clipPath id="a"><path fill="#fff" d="M0 0h256v256H0z"/></clipPath><filter id="b" width="136" height="255.71" x="64" y="4.145" color-interpolation-filters="sRGB" filterUnits="userSpaceOnUse"><feFlood flood-opacity="0" result="BackgroundImageFix"/><feColorMatrix in="SourceAlpha" result="hardAlpha" values="0 0 0 0 0 0 0 0 0 0 0 0 0 0 0 0 0 0 127 0"/><feOffset dx="4" dy="4"/><feGaussianBlur stdDeviation="4"/><feComposite in2="hardAlpha" operator="out"/><feColorMatrix values="0 0 0 0 0 0 0 0 0 0 0 0 0 0 0 0 0 0 0.25 0"/><feBlend in2="BackgroundImageFix" result="effect1_dropShadow_210_134"/><feBlend in="SourceGraphic" in2="effect1_dropShadow_210_134" result="shape"/></filter></defs></svg>
